# xmcd
#
# Track frame offsets:
#	150
#	11241
#	22862
#	36194
#	47475
#	58937
#	71484
#	83178
#	91814
#	103272
#	117043
#	129173
#	143692
#	157273
#	171346
#
# Disc length: 2435 seconds
#
# Revision: 0
# Processed by: cddbd v1.5.2PL0 Copyright (c) Steve Scherf et al.
# Submitted via: FairStars CD Ripper 1.90
#
DISCID=c409810f
DTITLE=Various Artist - Golden '60s Disc 1
DYEAR=2002
DGENRE=Country
TTITLE0=Glen Campbell - Try A Little Kindness
TTITLE1=Jody Miller - He Walks Like A Man
TTITLE2=Ray Peterson - Tell Laura I Love Her
TTITLE3=Ned Miller - Do What You Do Do Well
TTITLE4=Flatt And Scruggs - Petticoat Junction
TTITLE5=Bobby Bare - Four Strong Winds
TTITLE6=Skeeter Davis - My Last Date (With You)
TTITLE7=Roger Miller - England Swings
TTITLE8=Jim Reeves - Adios Amigo
TTITLE9=Willie Nelson - Funny How Time Slips Away
TTITLE10=George Jones and Melba Montgomery - We Must Have Been Out Of Our Minds
TTITLE11=Jimmy Dean - PT 109
TTITLE12=Johnny Cash - Tennessee Flat Top Box
TTITLE13=Ray Price - Danny Boy
TTITLE14=SSgt Barry Sadler - The Ballard Of The Green Berets
EXTD=
EXTT0=
EXTT1=
EXTT2=
EXTT3=
EXTT4=
EXTT5=
EXTT6=
EXTT7=
EXTT8=
EXTT9=
EXTT10=
EXTT11=
EXTT12=
EXTT13=
EXTT14=
PLAYORDER=
